<svg width="36" height="36" viewBox="0 0 36 36" fill="none" xmlns="http://www.w3.org/2000/svg">
<g id="Avatar" clip-path="url(#clip0_1845_3355)">
<rect id="Rectangle 172" width="36" height="36" rx="6" fill="#E2FFF3"/>
<g id="boy">
<mask id="mask0_1845_3355" style="mask-type:luminance" maskUnits="userSpaceOnUse" x="3" y="3" width="30" height="30">
<rect id="boy (Background/Mask)" x="3.60156" y="3.6001" width="28.8" height="28.8" fill="white"/>
</mask>
<g mask="url(#mask0_1845_3355)">
<g id="Bag 1">
<mask id="mask1_1845_3355" style="mask-type:luminance" maskUnits="userSpaceOnUse" x="9" y="9" width="18" height="18">
<rect id="Bag 1 (Background/Mask)" x="9.35938" y="9.36035" width="17.28" height="17.28" fill="white"/>
</mask>
<g mask="url(#mask1_1845_3355)">
<path id="Vector" fill-rule="evenodd" clip-rule="evenodd" d="M20.7619 24.8405C22.9696 24.8405 24.6633 24.0431 24.1823 20.8336L23.6221 16.4839C23.3255 14.8824 22.304 14.2695 21.4077 14.2695H14.0792C13.1697 14.2695 12.2075 14.9286 11.8648 16.4839L11.3046 20.8336C10.896 23.6806 12.5436 24.8405 14.7514 24.8405H20.7619Z" stroke="#4AB58E" stroke-width="1.5" stroke-linecap="round" stroke-linejoin="round"/>
<path id="Vector_2" d="M14.6484 14.1112C14.6484 12.3932 16.0411 11.0005 17.7591 11.0005C18.5864 10.997 19.381 11.3232 19.9672 11.9069C20.5534 12.4907 20.8829 13.2839 20.8829 14.1112" stroke="#4AB58E" stroke-width="1.5" stroke-linecap="round" stroke-linejoin="round"/>
<path id="Vector_3" d="M15.625 17.3535H15.658" stroke="#4AB58E" stroke-width="1.5" stroke-linecap="round" stroke-linejoin="round"/>
<path id="Vector_4" d="M19.8242 17.3535H19.8572" stroke="#4AB58E" stroke-width="1.5" stroke-linecap="round" stroke-linejoin="round"/>
</g>
</g>
</g>
</g>
</g>
<defs>
<clipPath id="clip0_1845_3355">
<rect width="36" height="36" fill="white"/>
</clipPath>
</defs>
</svg>
