<svg width="33" height="35" viewBox="0 0 33 35" fill="none" xmlns="http://www.w3.org/2000/svg">
<path d="M1 9.42858L16 16.0953L17.0153 13.8107L2.01533 7.14404L1 9.42858ZM17.7577 33.2863V14.953H15.2577V33.2863H17.7577ZM17.0153 16.0953L32.0153 9.42858L31 7.14404L16 13.8107L17.0153 16.0953Z" fill="#515062"/>
<path d="M1.50781 25.9697V8.93609C1.50781 8.5409 1.74055 8.18279 2.10168 8.02229L16.1016 1.80005C16.3603 1.68514 16.6553 1.68514 16.914 1.80005L30.914 8.02229C31.2751 8.18279 31.5078 8.5409 31.5078 8.93609V25.9697C31.5078 26.3649 31.2751 26.7231 30.914 26.8836L16.914 33.1057C16.6553 33.2206 16.3603 33.2206 16.1016 33.1057L2.10168 26.8836C1.74055 26.7231 1.50781 26.3649 1.50781 25.9697Z" stroke="#515062" stroke-width="3" stroke-linecap="round" stroke-linejoin="round"/>
<path d="M9.00781 4.95312L23.414 11.3559C23.7751 11.5164 24.0078 11.8745 24.0078 12.2697V18.2865" stroke="#515062" stroke-width="3" stroke-linecap="round" stroke-linejoin="round"/>
</svg>
