<svg width="37" height="35" viewBox="0 0 37 35" fill="none" xmlns="http://www.w3.org/2000/svg">
<path d="M18.666 6.68356L18.6827 6.66504" stroke="#515062" stroke-width="3" stroke-linecap="round" stroke-linejoin="round"/>
<path d="M25.332 10.0166L25.3487 9.99805"  stroke="#515062" stroke-width="3" stroke-linecap="round" stroke-linejoin="round"/>
<path d="M12 10.0166L12.0167 9.99805"  stroke="#515062" stroke-width="3" stroke-linecap="round" stroke-linejoin="round"/>
<path d="M28.666 16.6835L28.6827 16.665"  stroke="#515062" stroke-width="3" stroke-linecap="round" stroke-linejoin="round"/>
<path d="M8.66602 16.6835L8.68268 16.665"  stroke="#515062" stroke-width="3" stroke-linecap="round" stroke-linejoin="round"/>
<path d="M27 23.35L27.0167 23.3315"  stroke="#515062" stroke-width="3" stroke-linecap="round" stroke-linejoin="round"/>
<path d="M10.332 23.35L10.3487 23.3315"  stroke="#515062" stroke-width="3" stroke-linecap="round" stroke-linejoin="round"/>
<path d="M18.666 23.3335L20.3327 13.3335"  stroke="#515062" stroke-width="3" stroke-linecap="round" stroke-linejoin="round"/>
<path d="M12.8333 28.3348H5.33333C3.2403 25.549 2 22.0858 2 18.3332C2 9.12842 9.46192 1.6665 18.6667 1.6665C27.8713 1.6665 35.3333 9.12842 35.3333 18.3332C35.3333 22.0858 34.093 25.549 32 28.3348L24.5 28.3332"  stroke="#515062" stroke-width="3" stroke-linecap="round" stroke-linejoin="round"/>
<path d="M18.666 33.3335C21.4275 33.3335 23.666 31.095 23.666 28.3335C23.666 25.572 21.4275 23.3335 18.666 23.3335C15.9045 23.3335 13.666 25.572 13.666 28.3335C13.666 31.095 15.9045 33.3335 18.666 33.3335Z"  stroke="#515062" stroke-width="3" stroke-linecap="round" stroke-linejoin="round"/>
</svg>
