<svg width="32" height="27" viewBox="0 0 32 27" fill="none" xmlns="http://www.w3.org/2000/svg">
<path fill-rule="evenodd" clip-rule="evenodd" d="M4.21344 7.88208C4.21344 3.95096 7.40024 0.76416 11.3314 0.76416C15.2624 0.76416 18.4493 3.95095 18.4493 7.88208C18.4493 9.95992 17.5589 11.8298 16.1389 13.1311C16.5685 13.3535 17.0224 13.6196 17.5 13.938C18.1893 14.3975 18.3755 15.3288 17.916 16.0181C17.4565 16.7074 16.5252 16.8937 15.8359 16.4341C13.6836 14.9993 12.3326 14.9997 11.6565 14.9999L11.6096 14.9998C11.5811 14.9998 11.5529 14.999 11.5249 14.9974C11.4683 14.9989 11.4116 14.9998 11.3548 15L11.3314 15.0001C6.73008 15.0001 3 18.7302 3 23.3315V24.736C3 25.5644 2.32843 26.236 1.5 26.236C0.671573 26.236 0 25.5644 0 24.736V23.3315C0 18.81 2.64825 14.907 6.47828 13.0891C5.08479 11.7897 4.21344 9.93763 4.21344 7.88208ZM11.3314 3.76416C9.05709 3.76416 7.21344 5.60781 7.21344 7.88208C7.21344 10.1563 9.0571 12 11.3314 12C13.6056 12 15.4493 10.1563 15.4493 7.88208C15.4493 5.60782 13.6056 3.76416 11.3314 3.76416ZM17.9256 12.1221C17.9256 9.26258 20.2437 6.9445 23.1032 6.9445C25.9626 6.9445 28.2808 9.26257 28.2808 12.1221C28.2808 13.2627 27.9119 14.3171 27.287 15.1727C29.8323 16.3892 31.6518 18.7776 31.6518 21.6987V22.5414C31.6518 23.3698 30.9802 24.0414 30.1518 24.0414C29.3233 24.0414 28.6518 23.3698 28.6518 22.5414V21.6987C28.6518 19.4512 26.4995 17.2999 23.4103 17.2999C23.3734 17.2999 23.3368 17.2986 23.3006 17.296C23.2467 17.298 23.1927 17.2992 23.1385 17.2995L23.1168 17.2999L23.1045 17.2999C20.3786 17.2999 18.1688 19.5097 18.1688 22.2357V23.1551C18.1688 23.9835 17.4972 24.6551 16.6688 24.6551C15.8404 24.6551 15.1688 23.9835 15.1688 23.1551V22.2357C15.1688 19.3187 16.7425 16.7694 19.0873 15.3904C18.3611 14.4991 17.9256 13.3614 17.9256 12.1221ZM23.1032 9.9445C21.9005 9.9445 20.9256 10.9194 20.9256 12.1221C20.9256 13.3247 21.9006 14.2996 23.1032 14.2996C24.3058 14.2996 25.2808 13.3247 25.2808 12.1221C25.2808 10.9194 24.3058 9.9445 23.1032 9.9445Z" fill="#515062"/>
</svg>
