<svg width="37" height="37" viewBox="0 0 37 37" fill="none" xmlns="http://www.w3.org/2000/svg">
<path d="M18.6667 1.8335C9.46192 1.8335 2 9.29541 2 18.5002C2 27.7048 9.46192 35.1668 18.6667 35.1668C27.8713 35.1668 35.3333 27.7048 35.3333 18.5002C35.3333 9.29541 27.8713 1.8335 18.6667 1.8335Z" stroke="#515062" stroke-width="3" stroke-linecap="round" stroke-linejoin="round"/>
<path d="M5.78516 29.0763C5.78516 29.0763 9.50019 24.3335 18.6668 24.3335C27.8335 24.3335 31.5487 29.0763 31.5487 29.0763" stroke="#515062" stroke-width="3" stroke-linecap="round" stroke-linejoin="round"/>
<path d="M18.666 18.5C21.4275 18.5 23.666 16.2615 23.666 13.5C23.666 10.7386 21.4275 8.5 18.666 8.5C15.9045 8.5 13.666 10.7386 13.666 13.5C13.666 16.2615 15.9045 18.5 18.666 18.5Z" stroke="#515062" stroke-width="3" stroke-linecap="round" stroke-linejoin="round"/>
</svg>
