<svg width="38" height="37" viewBox="0 0 38 37" fill="none" xmlns="http://www.w3.org/2000/svg">
<path d="M19 23.5C21.7615 23.5 24 21.2615 24 18.5C24 15.7385 21.7615 13.5 19 13.5C16.2385 13.5 14 15.7385 14 18.5C14 21.2615 16.2385 23.5 19 23.5Z" stroke="#515062" stroke-width="3" stroke-linecap="round" stroke-linejoin="round"/>
<path d="M31.7047 15.8258L29.8752 11.4082L32.334 8.50016L29.0007 5.16683L26.1085 7.63841L21.597 5.78306L20.5595 1.8335H17.3023L16.2492 5.83538L11.8413 7.69343L9.00065 5.16683L5.66732 8.50016L8.0896 11.4816L6.28815 15.9107L2.33398 16.8335V20.1668L6.33583 21.2593L8.19357 25.6663L5.66732 28.5002L9.00065 31.8335L11.9859 29.4007L16.329 31.1873L17.334 35.1668H20.6673L21.6748 31.1888L26.0925 29.3593C26.8288 29.8857 29.0007 31.8335 29.0007 31.8335L32.334 28.5002L29.8605 25.5825L31.6905 21.1635L35.6672 20.1288L35.6673 16.8335L31.7047 15.8258Z" stroke="#515062" stroke-width="3" stroke-linecap="round" stroke-linejoin="round"/>
</svg>
