<svg width="12" height="12" viewBox="0 0 12 12" fill="none" xmlns="http://www.w3.org/2000/svg">
<path fill-rule="evenodd" clip-rule="evenodd" d="M9.1019 3.11245L6.44021 0.831258C6.31594 0.72232 6.15906 0.666586 6.00136 0.666504C5.89345 0.666448 5.78515 0.692447 5.68666 0.745284C5.64276 0.76877 5.60106 0.797453 5.5625 0.831258L2.90081 3.11245C2.62125 3.35204 2.58885 3.77291 2.82845 4.05247C3.06805 4.33204 3.48892 4.36443 3.76848 4.12484L5.33464 2.78256V7.94565C5.33464 8.31384 5.63312 8.61232 6.00131 8.61232C6.3695 8.61232 6.66798 8.31384 6.66798 7.94565L6.66798 2.78249L8.23423 4.12484C8.51379 4.36443 8.93466 4.33204 9.17426 4.05247C9.41386 3.77291 9.38146 3.35204 9.1019 3.11245ZM2.0013 7.33317C2.0013 6.96498 2.29978 6.6665 2.66797 6.6665H3.66797C4.03616 6.6665 4.33464 6.36803 4.33464 5.99984C4.33464 5.63165 4.03616 5.33317 3.66797 5.33317H2.66797C1.5634 5.33317 0.667969 6.2286 0.667969 7.33317V9.33317C0.667969 10.4377 1.5634 11.3332 2.66797 11.3332H9.33464C10.4392 11.3332 11.3346 10.4377 11.3346 9.33317V7.33317C11.3346 6.2286 10.4392 5.33317 9.33464 5.33317H8.33464C7.96645 5.33317 7.66797 5.63165 7.66797 5.99984C7.66797 6.36803 7.96645 6.6665 8.33464 6.6665H9.33464C9.70283 6.6665 10.0013 6.96498 10.0013 7.33317V9.33317C10.0013 9.70136 9.70283 9.99984 9.33464 9.99984H2.66797C2.29978 9.99984 2.0013 9.70136 2.0013 9.33317V7.33317Z" fill="#0F3659"/>
</svg>
